<?xml version="1.0" standalone="no"?><!DOCTYPE svg PUBLIC "-//W3C//DTD SVG 1.1//EN" "http://www.w3.org/Graphics/SVG/1.1/DTD/svg11.dtd"><svg t="1590213559182" class="icon" viewBox="0 0 1024 1024" version="1.1" xmlns="http://www.w3.org/2000/svg" p-id="11218" xmlns:xlink="http://www.w3.org/1999/xlink" width="32" height="32"><defs><style type="text/css"></style></defs><path d="M0 320v608h832V320H0z m800 32v544H32V352h768z" p-id="11219" fill="#008080"></path><path d="M576 416v160h160v-160h-160z m32 32h96v96h-96v-96zM432 768h288a16 16 0 1 0 0-32h-288a16 16 0 1 0 0 32zM432 832h288a16 16 0 1 0 0-32h-288a16 16 0 1 0 0 32z" p-id="11220" fill="#008080"></path><path d="M914.24 838.336l-85.824-94.912-23.744 21.472 85.856 94.912zM202.208 153.056l161.056 196.128 24.736-20.32L226.88 132.768zM994.24 268.064l-184.896 109.376 16.32 27.52 184.896-109.344z" p-id="11221" fill="#008080"></path><path d="M983.872 294.816l-94.464 535.744-68.64-12.128-5.536 31.52 100.128 17.664 105.6-598.752L201.536 124.384 165.28 330.24l31.52 5.568 30.72-174.368z" p-id="11222" fill="#008080"></path><path d="M333.568 511.68a44.896 44.896 0 0 0 0-63.36c-17.6-17.6-45.76-17.6-63.36 0l-40.704 40.736-40.736-40.736a44.896 44.896 0 0 0-63.36 0c-17.6 17.6-17.6 45.76 0 63.36l104.096 104.096 104.064-104.096zM229.504 443.84l18.08-18.112a76.608 76.608 0 0 1 108.608 0c30.016 29.984 29.92 78.72 0 108.608l-126.72 126.72-126.688-126.72a76.608 76.608 0 0 1 0-108.608 76.896 76.896 0 0 1 108.608 0l18.112 18.112z" p-id="11223" fill="#008080"></path></svg>